<svg xmlns="http://www.w3.org/2000/svg" width="1024" height="1024" viewBox="0 0 1024 1024"><g transform="translate(512 512) scale(1.0829) translate(-479.0 -482.0) rotate(-10 512 512)" fill="none" stroke="#00ff00" stroke-linecap="round" stroke-linejoin="round"><path d="M 96 380 L 330 384 L 330 450 L 300 452 Q 250 460 200 500 L 112 570 Q 94 578 94 556 Z" stroke-width="20"/><rect x="330" y="384" width="190" height="66" rx="10" ry="10" stroke-width="18"/><rect x="420" y="398" width="64" height="28" rx="5" ry="5" stroke-width="9"/><rect x="520" y="392" width="380" height="26" rx="12" ry="12" stroke-width="16"/><circle cx="884" cy="384" r="5" stroke-width="8"/><ellipse cx="900" cy="405" rx="7" ry="13" stroke-width="13"/><circle cx="901" cy="405" r="4" stroke-width="11"/><rect x="520" y="428" width="290" height="22" rx="10" ry="10" stroke-width="14"/><rect x="600" y="420" width="130" height="54" rx="12" ry="12" stroke-width="18"/><line x1="632" y1="432" x2="632" y2="462" stroke-width="9"/><line x1="664" y1="432" x2="664" y2="462" stroke-width="9"/><line x1="696" y1="432" x2="696" y2="462" stroke-width="9"/><path d="M 400 450 Q 402 500 440 500 L 470 500 Q 490 500 490 480 L 490 450" stroke-width="14"/><path d="M 445 462 Q 440 478 446 490" stroke-width="9"/></g></svg>
